<svg width="100" height="57" viewBox="0 0 100 57" fill="none" xmlns="http://www.w3.org/2000/svg">
<path d="M2.56973 43.1188L8.53575 37.9459L14.2935 25.5228L20.2304 12.7128L36.0621 6.96529L52.3573 9.4135C52.3573 9.4135 48.3253 14.6657 45.7418 18.0308C48.9072 14.8941 53.8476 9.99886 53.8476 9.99886L68.0202 5.52027L78.3559 2.25409L82.1927 1.04164L82.3969 0L83.9384 0.93208L90.5487 1.06349L92.4335 2.48934L98.3134 4.14186L99.4413 4.37175L99.1986 6.32396L98.9452 8.38788L96.5973 8.94382L94.2497 9.49977L95.1174 9.99886L98.2535 9.21574L88.378 15.2866L78.5023 21.3573L79.0088 25.5888L83.8998 37.0758L88.7906 48.5628L90.0365 49.7931L94.0984 51.1707L95.2439 52.399L95.9954 53.7425L84.2111 53.7766L75.3676 43.7635L66.5241 33.7505L64.2524 33.7594L68.367 27.0329L68.3371 27.008L51.4172 46.8134L50.7169 50.6516L51.4313 53.5648L56.4771 55.0519L56.8271 56.1636L56.1374 56.5821L46.009 56.6936L43.4431 54.055L42.7302 50.2294L45.4879 27.6005L43.0523 38.9787L38.5929 38.9416L38.5261 38.9411L37.5124 44.4173L36.4986 49.8937L37.5581 52.0453L40.3843 52.7189L41.5002 54.4322L39.2091 55.2477L29.4187 55.2927L27.9068 53.7678L25.5357 41.9008L27.9387 40.1104L36.225 38.9219L27.9387 38.8529L25.36 40.4641L16.2868 46.1316L7.21404 51.7993L4.33489 54.91L0.456127 54.4844L0 49.0406L2.56973 43.1188ZM91.6153 4.37175L92.3174 4.08636L92.1908 3.208L92.8471 2.62075L90.8918 3.48621L91.6153 4.37175ZM79.4243 7.77335L79.5371 3.4916L83.136 3.62264L80.9238 2.25409L78.7171 2.89003L78.5023 5.61641L79.4243 7.77335Z" fill="#F3FCFF"/>
<path d="M36.773 7.2923L52.2228 9.64067L45.9193 18.0454L46.2901 18.4162L54.5712 10.2587L81.5156 1.85397L82.9988 1.23598L83.1224 0.494392L84.3584 1.23598L90.9091 1.35958L92.8867 2.47197L99.6846 4.57314L99.1902 8.15749L94.2463 9.39347L96.1002 10.5059L78.7965 21.1353L79.2909 25.4613L85.2236 39.5515L88.6843 47.8326L89.0551 48.6977L90.4147 50.0573L94.3699 51.4169L95.6058 52.5293L95.9766 53.3945H84.7292L67.3018 33.4951H65.3242L69.2794 26.8208L68.5378 26.9444L51.7284 46.5966L50.9868 50.7989L51.7284 53.7653L56.796 55.2485L57.0432 55.99L56.5488 56.2372L46.6609 56.3608L44.3125 54.0125L43.5709 50.1809L46.2901 26.9444L45.6721 27.5624L43.3237 38.6863H38.7506L36.773 49.6865L37.8854 52.2821L40.7282 53.0237L41.5934 54.2597L39.7394 55.0013H33.4359H30.0987L28.7391 53.5181L26.3908 42.0234L28.6155 40.4167L37.2674 38.9335L36.5258 38.5627H28.6155L7.60382 51.5405L4.76106 54.6305L1.30031 54.2597L0.805916 49.1921L3.27788 43.5066L9.3342 38.1919L20.9524 12.9778L36.773 7.2923Z" fill="#222222"/>
<path fill-rule="evenodd" clip-rule="evenodd" d="M9.09446 37.9459L3.12845 43.1188L0.558739 49.0406L1.01484 54.4844L4.8936 54.91L7.77278 51.7993L28.4974 38.8529L36.7837 38.9219L28.4974 40.1104L26.0944 41.9008L28.4655 53.7678L29.9773 55.2927L39.7678 55.2477L42.0588 54.4322L40.9432 52.7189L38.117 52.0453L37.0573 49.8937L39.0851 38.9411L43.611 38.9787L45.9875 27.5624L43.2891 50.2294L44.002 54.055L46.3709 56.4911L46.3719 56.4921L46.5677 56.6936L56.6961 56.5821L57.3858 56.1636L57.0357 55.0519L51.99 53.5648L51.2756 50.6516L51.9759 46.8134L68.896 27.008L68.9257 27.0329L64.8111 33.7594L67.083 33.7505L84.77 53.7766L96.5543 53.7425L95.8026 52.399L94.6571 51.1707L90.5952 49.7931L89.3493 48.5628L79.5677 25.5888L79.061 21.3573L98.8125 9.21574L95.676 9.99886L94.8084 9.49977L99.5039 8.38788L99.7573 6.32396L100 4.37175L98.872 4.14186L92.9922 2.48934L91.1073 1.06349L84.4973 0.93208L82.9555 0L82.7514 1.04164L54.4063 9.99886L46.3005 18.0308L49.6082 13.7221L52.916 9.4135L36.621 6.96529L20.789 12.7128L9.09446 37.9459ZM15.0956 26.3213L9.79242 37.764L25.2888 40.0832L15.0956 26.3213ZM9.86018 38.3471L16.6927 45.5628L24.6905 40.5667L9.86018 38.3471ZM25.82 39.8612L28.3436 38.2848L28.4109 38.2853L31.3609 30.2987L15.5593 26.0081L25.82 39.8612ZM16.0691 25.5599L31.5577 29.7654L34.5233 21.737L16.0691 25.5599ZM35.1064 21.7634L45.2187 27.4579L32.1591 29.7422L35.1064 21.7634ZM31.7831 30.7604L29.0017 38.2903L36.1343 38.3496L31.7831 30.7604ZM36.7893 38.3711L36.7881 38.355H36.7799L32.1707 30.3155L45.3503 28.0099L36.8237 38.4312L36.7893 38.3711ZM36.073 39.5962L31.84 46.9377L29.0232 40.6072L36.073 39.5962ZM30.951 46.3091L28.5031 40.8075L26.7265 42.1315L30.951 46.3091ZM26.8978 43.0898L28.7923 52.5713L31.4632 47.6041L26.8978 43.0898ZM31.9292 47.9144L28.9866 53.3871L37.416 51.8826L36.4776 49.977L36.4833 49.9466L31.9292 47.9144ZM36.5889 49.3753L37.3848 45.0763L32.4683 47.5364L36.5889 49.3753ZM32.5163 46.8811L36.7748 39.4956L36.8529 39.3601L36.9414 39.2066L38.469 39.2195L37.5136 44.3807L32.5163 46.8811ZM40.6046 38.4312L37.391 38.5627L45.15 29.1383L43.1655 38.4079L40.6046 38.4312ZM46.365 29.5739L51.567 46.4302L51.4587 46.557L51.4281 46.7251L43.9148 49.6796L46.365 29.5739ZM44.6062 50.0151L51.3087 47.3794L50.7683 50.3409L44.6062 50.0151ZM50.132 50.8751L43.9126 50.5463L44.4678 53.5255L50.132 50.8751ZM50.3355 51.4033L44.7478 54.0179L46.7187 56.0447L50.3355 51.4033ZM47.7829 55.5889L50.9258 51.5556L51.4162 53.5561C50.5854 54.0098 49.5121 54.6025 48.5732 55.1355C48.2951 55.2934 48.0284 55.4462 47.7829 55.5889ZM51.6696 54.0604C50.8417 54.5123 49.7751 55.1016 48.8424 55.6311C48.546 55.7995 48.2637 55.9614 48.0074 56.1107L55.3138 56.0303L52.7273 54.3721L51.6696 54.0604ZM54.6589 54.9414L56.3399 56.0192L56.5413 56.017L56.7225 55.907L56.5984 55.5132L54.6589 54.9414ZM51.9638 45.832L46.5296 28.2232L46.5726 27.8704L57.1003 27.5973L51.9638 45.832ZM57.6814 27.5822L52.7686 45.0237L67.8953 27.3175L57.6814 27.5822ZM70.2751 26.5638L78.9843 25.3819L78.5735 21.9511L70.2751 26.5638ZM78.4378 21.3813L69.1904 26.5215L68.9257 26.6503L68.7123 26.3608L55.4475 10.7894L78.4378 21.3813ZM55.5706 10.2243L66.5256 15.2713L68.1653 6.24434L55.5706 10.2243ZM68.7637 6.05526L67.1169 15.1213L79.2063 7.90881L69.1721 5.9262L68.7637 6.05526ZM70.2964 5.5709L79.1873 7.32753L78.4971 5.71291L78.7178 2.90965L70.2964 5.5709ZM79.2758 2.89003L79.061 5.61641L79.983 7.77335L80.0957 3.4916L83.6949 3.62264L81.4827 2.25409L79.2758 2.89003ZM82.76 2.38162L85.8072 4.26686L80.6349 4.07852L80.5375 7.78867L80.4574 7.80474L88.734 14.7497L88.7385 14.747L90.7415 1.62324L89.1468 1.59155L82.76 2.38162ZM85.1694 1.51247L81.9907 1.90571L81.9584 1.88566L83.2302 1.4837L83.3456 0.89453L84.3406 1.49601L85.1694 1.51247ZM91.2626 1.88604L91.0881 3.0289L92.1513 2.55834L91.2626 1.88604ZM91.4507 3.48621L92.174 4.37175L92.876 4.08636L92.7495 3.208L93.406 2.62075L91.4507 3.48621ZM93.3422 3.43111L93.5595 3.23672L97.7401 4.41167L93.6095 6.5564L92.6924 4.77114L93.4888 4.44746L93.3422 3.43111ZM92.1742 4.98175L92.0059 5.0502L90.9726 3.78552L89.3577 14.3663L95.5356 10.5686L93.2906 9.27704L94.2626 9.0469L92.1742 4.98175ZM94.821 8.9149L93.8673 7.05835L98.3188 4.74702L97.0556 8.38565L94.821 8.9149ZM97.6969 8.23387L99.0018 7.92488L99.2072 6.25247L99.3847 4.82444L98.9138 4.72843L97.6969 8.23387ZM88.2295 15.06L80.2164 8.33597C79.9378 11.8494 79.4748 17.9816 79.363 20.5102L88.2295 15.06ZM78.7945 20.8597C78.8733 18.5786 79.3717 11.9735 79.6636 8.29221L67.3382 15.6458L78.7349 20.8963L78.7945 20.8597ZM53.1159 12.0672L46.6609 18.4162L46.3588 26.2946L53.1159 12.0672ZM45.7992 17.8829L35.2842 20.9675L36.8242 7.6229L45.7992 17.8829ZM46.013 18.4102L35.6821 21.4404L45.7819 27.1276L46.013 18.4102ZM37.6261 7.6893L46.0988 17.3752L51.8896 9.83225L37.6261 7.6893ZM36.2571 7.69894L21.7464 12.9667L34.7346 20.8899L36.2571 7.69894ZM34.2022 21.2253L21.1482 13.2619L15.6792 25.0623L34.2022 21.2253ZM54.2802 10.9132L54.2857 10.908L57.1408 27.0292L46.4953 27.3053L54.2802 10.9132ZM57.7019 27.0146L68.2997 26.7398L54.8587 10.9614L57.7019 27.0146ZM78.3661 26.0377L69.4482 27.248L65.8144 33.1884L67.3285 33.1824H67.4289L78.3661 26.0377ZM67.745 33.6541L75.8338 42.8127L79.1645 26.1888L67.745 33.6541ZM79.5665 27.0067L76.347 43.0767L83.8909 37.1633L79.5665 27.0067ZM84.1191 37.699L76.5544 43.6285L76.6308 43.715L88.4851 47.9534L84.1191 37.699ZM88.7867 48.6619L77.406 44.5928L84.9556 53.1411L88.8203 48.7408L88.7867 48.6619ZM89.1782 49.1818L85.6426 53.2074L85.8218 53.2066L93.1803 51.2671L90.3007 50.2904L89.1782 49.1818ZM94.1518 51.5966L88.0676 53.2002L95.5999 53.1784L95.3549 52.7404L94.3513 51.6641L94.1518 51.5966ZM37.6765 52.4116L34.3809 52.9997L39.0403 54.6841L39.6729 54.6811L41.2008 54.1376L40.6033 53.22L37.7383 52.5372L37.6765 52.4116ZM37.3977 54.6918L33.2673 53.1985L29.3786 53.8926L30.2038 54.7247L37.3977 54.6918ZM16.208 45.8656L8.1364 50.9077L9.31222 38.5834L16.208 45.8656ZM8.71346 39.0197L3.61602 43.4394L7.58419 50.856L8.71346 39.0197ZM7.17189 51.2669L3.32188 44.071L1.19166 48.9798L7.17189 51.2669ZM7.00204 51.8072L1.15987 49.5731L1.52834 53.9705L4.67966 54.3163L7.00204 51.8072Z" fill="#F3FCFF"/>
</svg>
